<?xml version="1.0" standalone="no"?>
<!DOCTYPE svg PUBLIC "-//W3C//DTD SVG 20010904//EN"
 "http://www.w3.org/TR/2001/REC-SVG-20010904/DTD/svg10.dtd">
<svg version="1.0" xmlns="http://www.w3.org/2000/svg"
 width="700.000000pt" height="700.000000pt" viewBox="0 0 700.000000 700.000000"
 preserveAspectRatio="xMidYMid meet">
<metadata>
Created by potrace 1.11, written by Peter Selinger 2001-2013
</metadata>
<g transform="translate(0.000000,700.000000) scale(0.100000,-0.100000)"
fill="#000000" stroke="none">
<path d="M2210 4862 c-63 -37 -161 -94 -505 -292 -16 -10 -118 -68 -225 -130
-107 -62 -240 -139 -294 -171 -55 -31 -102 -65 -106 -75 -3 -11 -5 -327 -5
-703 l1 -684 259 -150 c143 -82 280 -161 305 -175 25 -14 105 -61 179 -104 74
-43 135 -78 137 -78 2 0 44 -25 94 -55 50 -30 93 -55 95 -55 3 0 35 -18 71
-41 37 -22 73 -38 80 -35 14 5 78 42 679 389 143 82 276 159 295 170 19 11 49
28 65 38 17 11 37 22 45 26 8 4 40 22 70 40 30 18 57 29 60 24 4 -6 283 -170
440 -258 19 -11 188 -108 374 -216 186 -109 342 -197 346 -197 4 0 13 -6 20
-14 15 -19 24 -15 140 54 52 31 102 59 110 63 8 4 31 17 50 28 19 12 226 132
460 267 234 134 436 253 450 262 l25 18 0 696 0 697 -115 67 c-63 38 -122 71
-130 75 -8 4 -31 17 -50 28 -33 20 -383 223 -460 267 -60 34 -283 164 -315
183 -16 10 -47 27 -67 38 -20 11 -45 25 -55 31 -19 12 -38 4 -183 -82 -19 -11
-114 -65 -210 -121 -96 -55 -208 -120 -247 -144 -40 -23 -74 -43 -76 -43 -2 0
-118 -67 -257 -148 l-254 -148 -241 139 c-132 77 -258 149 -280 162 -22 12
-103 59 -179 104 -76 44 -140 81 -142 81 -2 0 -37 20 -77 45 -41 25 -77 45
-80 45 -3 0 -25 13 -49 28 -24 16 -72 45 -108 64 l-65 35 -75 -45z"/>
</g>
</svg>
